PathFileType	4	(X/Y/Z)	/Users/itak/Documents/Research/Walk-IL/dataset/trc/00174_00008.trc
DataRate	CameraRate	NumFrames	NumMarkers	Units	OrigDataRate	OrigDataStartFrame	OrigNumFrames
100.000000	100.000000	4	53	mm	100.000000	307	614
Frame#	Time	RPSI			LPSI			L3			STRN			T10			C7			CLAV			RBAK			LBAK			LSHO			LUPA			LAEL			LAOL			LWTS			LWPS			LFRA			LIFD			LHPS			LHTS			RSHO			RUPA			RAEL			RAOL			RWTS			RWPS			RFRA			RIFD			RHTS			RHPS			RBHD			LFHD			RFHD			LBHD			LHIP			RHIP			RASI			LASI			LKNE			LTHI			LANK			LTIP			LTOE			LMT1			LMT5			LHEE			RKNE			RTHI			RANK			RTIP			RTOE			RMT1			RMT5			RHEE			
		X1	Y1	Z1	X2	Y2	Z2	X3	Y3	Z3	X4	Y4	Z4	X5	Y5	Z5	X6	Y6	Z6	X7	Y7	Z7	X8	Y8	Z8	X9	Y9	Z9	X10	Y10	Z10	X11	Y11	Z11	X12	Y12	Z12	X13	Y13	Z13	X14	Y14	Z14	X15	Y15	Z15	X16	Y16	Z16	X17	Y17	Z17	X18	Y18	Z18	X19	Y19	Z19	X20	Y20	Z20	X21	Y21	Z21	X22	Y22	Z22	X23	Y23	Z23	X24	Y24	Z24	X25	Y25	Z25	X26	Y26	Z26	X27	Y27	Z27	X28	Y28	Z28	X29	Y29	Z29	X30	Y30	Z30	X31	Y31	Z31	X32	Y32	Z32	X33	Y33	Z33	X34	Y34	Z34	X35	Y35	Z35	X36	Y36	Z36	X37	Y37	Z37	X38	Y38	Z38	X39	Y39	Z39	X40	Y40	Z40	X41	Y41	Z41	X42	Y42	Z42	X43	Y43	Z43	X44	Y44	Z44	X45	Y45	Z45	X46	Y46	Z46	X47	Y47	Z47	X48	Y48	Z48	X49	Y49	Z49	X50	Y50	Z50	X51	Y51	Z51	X52	Y52	Z52	X53	Y53	Z53	

308	3.07	-117.956916809082	1046.34326171875	386.4016418457031	-133.2465972900391	1045.827270507812	264.6650085449219	-122.0181350708008	1086.724487304688	327.3459167480469	152.0389404296875	1283.358764648438	286.5538635253906	-145.1463928222656	1249.647216796875	318.2348022460938	-65.38435363769531	1513.475952148438	284.2113037109375	129.6770935058594	1398.662963867188	272.8762817382812	-130.1861877441406	1348.686157226562	410.22900390625	-84.21207427978516	1484.020263671875	186.2251129150391	-18.15836524963379	1460.218017578125	101.1296005249023	-71.59300231933594	1327.432861328125	42.54225158691406	-86.99567413330078	1112.08642578125	42.98897933959961	-110.503303527832	1104.31201171875	128.5260772705078	-6.413915634155273	866.4310302734375	56.17865753173828	-98.04376983642578	857.9650268554688	41.49160385131836	-93.10237884521484	1001.071960449219	33.60653305053711	-11.8105411529541	682.4797973632812	86.86711883544922	-86.21331787109375	785.4114990234375	44.29555511474609	-13.28807163238525	786.46484375	39.56296157836914	14.60410976409912	1498.74169921875	458.7592163085938	-1.998576641082764	1437.92626953125	534.1090698242188	-21.00856399536133	1151.202758789062	610.718994140625	-34.11923980712891	1139.2275390625	514.6828002929688	154.7881927490234	955.54931640625	569.7615966796875	90.72698974609375	918.3357543945312	618.32763671875	15.79221057891846	1079.602416992188	624.4996948242188	218.4519500732422	783.8729248046875	533.1644897460938	204.9423675537109	874.0967407226562	572.443359375	137.985107421875	845.205078125	607.9501953125	17.1284065246582	1672.960327148438	344.0140686035156	148.6002349853516	1703.474487304688	173.0462493896484	178.9669799804688	1714.574340820312	298.6541137695312	-24.17648124694824	1669.152221679688	210.5913696289062	-47.33689880371094	985.7680053710938	134.2848510742188	42.75083541870117	998.6799926757812	497.5529479980469	118.6878280639648	1026.61083984375	434.8617858886719	84.61868286132812	1024.064331054688	177.3264007568359	201.7647399902344	534.3160400390625	116.4331359863281	124.4616394042969	661.5105590820312	102.9079055786133	188.8912353515625	50.32745742797852	126.0481796264648	191.442138671875	298.7997436523438	106.7507095336914	396.4353637695312	97.84666442871094	87.15694427490234	365.0554809570312	92.2926025390625	146.6189117431641	283.0754699707031	54.09675216674805	60.68829727172852	159.6510009765625	51.74172210693359	206.6179046630859	68.61615753173828	492.037841796875	442.2235717773438	102.7303314208984	764.5225830078125	485.1142272949219	-128.8378601074219	39.94402694702148	442.4987182617188	55.76179885864258	365.9811706542969	420.1385803222656	91.46797180175781	41.81150436401367	393.4450988769531	33.54796600341797	37.17630386352539	351.7922668457031	-11.99729919433594	38.5662956237793	470.7039184570312	-185.8020172119141	41.06066513061523	376.7858581542969	
309	3.08	-124.8190994262695	1048.31103515625	388.0835571289062	-140.7400665283203	1047.963134765625	266.3796997070312	-129.1754913330078	1088.758911132812	329.1442565917969	144.1905670166016	1286.020141601562	287.0387268066406	-152.671630859375	1251.408081054688	320.2568054199219	-73.70155334472656	1515.415893554688	285.8227844238281	121.4719696044922	1401.271240234375	273.4720764160156	-137.5203857421875	1350.504638671875	412.0520629882812	-93.08444976806641	1486.05078125	187.9777526855469	-27.38320541381836	1462.739990234375	102.4943161010742	-80.90179443359375	1329.818725585938	44.28339767456055	-95.56475067138672	1114.325439453125	45.91766357421875	-118.4878082275391	1106.86767578125	131.6471710205078	-13.95790481567383	868.9265747070312	60.0555419921875	-105.5024642944336	860.0711669921875	45.16710662841797	-101.2727966308594	1003.18994140625	37.03886032104492	-18.75100517272949	685.0492553710938	92.04940795898438	-93.37765502929688	787.51416015625	48.43240356445312	-20.44634056091309	788.7722778320312	44.0134162902832	6.930489540100098	1500.891479492188	459.8697814941406	-9.499439239501953	1440.212646484375	535.2461547851562	-30.10313415527344	1153.607177734375	611.0985717773438	-42.54929351806641	1141.859985351562	514.9291381835938	142.8470916748047	954.8447875976562	572.201904296875	77.66248321533203	919.1243896484375	620.374267578125	5.615493774414062	1081.6943359375	625.3429565429688	203.2594604492188	781.65478515625	536.6392211914062	191.2975769042969	872.2935791015625	575.4991455078125	123.4818267822266	844.9429321289062	610.5842895507812	8.730947494506836	1674.859497070312	345.5934143066406	140.6501007080078	1706.101196289062	175.0675354003906	170.6968231201172	1716.55029296875	300.7940673828125	-32.2697639465332	1671.771484375	212.0143890380859	-54.80103302001953	988.583984375	135.4533996582031	35.86521148681641	1000.21240234375	498.583740234375	111.4952011108398	1028.764770507812	435.7277221679688	76.85626220703125	1026.710083007812	178.4215698242188	195.2015075683594	536.9793701171875	116.0874557495117	117.8218612670898	664.663818359375	103.6473083496094	165.8656463623047	53.41791915893555	130.0143585205078	177.0755157470703	301.365478515625	108.5224609375	374.5509948730469	93.58267211914062	89.28608703613281	343.5791320800781	89.70089721679688	148.9213104248047	259.6110534667969	53.59711837768555	63.90762710571289	137.2605743408203	56.47912216186523	210.7843627929688	63.79475021362305	493.9324645996094	442.5877075195312	96.70256042480469	766.3392333984375	485.6316528320312	-128.8258361816406	39.86331558227539	442.6352233886719	52.13943862915039	367.9135437011719	420.6341552734375	91.44490814208984	41.80158615112305	393.4079895019531	33.46828460693359	37.27017974853516	351.8169250488281	-11.8969841003418	38.53149032592773	470.6414489746094	-185.7464141845703	41.0205192565918	376.9407958984375	
310	3.09	-131.6414184570312	1050.260131835938	389.5343627929688	-148.0336303710938	1050.086547851562	267.8547973632812	-136.2068634033203	1090.767578125	330.7156982421875	136.4726409912109	1288.634887695312	287.4750366210938	-160.0603332519531	1253.0830078125	322.1775512695312	-81.9527587890625	1517.292236328125	287.410888671875	113.3520736694336	1403.80322265625	274.0187683105469	-144.7723236083984	1352.237548828125	413.8167419433594	-101.9125366210938	1487.992065429688	189.7205810546875	-36.56195831298828	1465.177612304688	103.83056640625	-90.24943542480469	1332.126953125	46.05307769775391	-104.1567001342773	1116.474609375	48.66831970214844	-126.4559020996094	1109.285888671875	134.5862121582031	-21.30034065246582	871.417236328125	63.54028701782227	-112.7285919189453	862.0955200195312	48.56469345092773	-109.3736419677734	1005.213195800781	40.23883056640625	-25.24691009521484	687.627197265625	96.73502349853516	-100.2460556030273	789.5582885742188	52.23936080932617	-27.30157470703125	791.0924682617188	48.03479766845703	-0.6273781657218933	1502.947021484375	460.9609375	-16.86656951904297	1442.379760742188	536.3519287109375	-38.95510482788086	1155.911743164062	611.4788208007812	-50.80855178833008	1144.35302734375	515.192138671875	130.8536529541016	953.9151000976562	574.6505737304688	64.58264923095703	919.8286743164062	622.510009765625	-4.366315364837646	1083.714233398438	626.18310546875	187.6217803955078	779.1185302734375	540.1663208007812	177.4439849853516	870.1863403320312	578.5433959960938	108.8193359375	844.5635986328125	613.312744140625	0.2938179969787598	1676.742553710938	347.1070251464844	132.5960693359375	1708.715087890625	176.983642578125	162.3485565185547	1718.564819335938	302.8177185058594	-40.44501113891602	1674.314819335938	213.3906402587891	-61.67715454101562	991.5230102539062	136.1644592285156	28.91962242126465	1001.702575683594	499.5140075683594	104.3303985595703	1030.782958984375	436.5677795410156	69.32917785644531	1029.195556640625	179.4603271484375	188.7046966552734	539.5177612304688	115.6205825805664	111.3234939575195	667.691162109375	104.1891326904297	141.9179840087891	57.12383270263672	133.68798828125	162.3957214355469	304.1863098144531	110.1088409423828	351.6703491210938	89.49480438232422	91.94309234619141	320.9369506835938	87.32146453857422	151.6138610839844	235.3179321289062	53.5598258972168	67.19535827636719	113.7669372558594	61.84191513061523	214.5520324707031	58.75962829589844	495.8360900878906	443.0427551269531	90.506591796875	768.1429443359375	486.1933898925781	-128.8387756347656	39.73794937133789	442.8039855957031	48.32575607299805	369.8625793457031	421.2235412597656	91.39006805419922	41.80355453491211	393.388427734375	33.37028503417969	37.37611389160156	351.8719787597656	-11.83328723907471	38.41981887817383	470.6377258300781	-185.7142181396484	40.96276473999023	377.1097106933594	
311	3.1	-138.4816284179688	1052.152099609375	390.7343444824219	-155.1581726074219	1052.149169921875	269.0785217285156	-143.16015625	1092.712890625	332.0398559570312	128.8752593994141	1291.134643554688	287.8857421875	-167.3367919921875	1254.657592773438	323.9559020996094	-90.12254333496094	1519.079956054688	288.9596862792969	105.3246231079102	1406.197875976562	274.5413513183594	-151.9729156494141	1353.865966796875	415.4933776855469	-110.649772644043	1489.823974609375	191.4250793457031	-45.64482879638672	1467.473388671875	105.1282424926758	-99.58535766601562	1334.297729492188	47.85356521606445	-112.7723159790039	1118.474365234375	51.22894287109375	-134.4232482910156	1111.509521484375	137.3260498046875	-28.45530700683594	873.8475341796875	66.59449005126953	-119.7449417114258	863.9775390625	51.69374847412109	-117.4170761108398	1007.086730957031	43.19445037841797	-31.29359817504883	690.15673828125	100.8657684326172	-106.8420104980469	791.4886474609375	55.71691513061523	-33.88113021850586	793.3734130859375	51.58368682861328	-8.077399253845215	1504.86767578125	462.0387268066406	-24.11387252807617	1444.377197265625	537.4338989257812	-47.55122756958008	1158.071533203125	611.888671875	-58.91741180419922	1146.650146484375	515.5078735351562	118.8342666625977	952.7791137695312	577.0914306640625	51.56755828857422	920.441162109375	624.7545166015625	-14.12763214111328	1085.62548828125	627.0468139648438	171.6480560302734	776.34912109375	543.7135620117188	163.4603271484375	867.84130859375	581.550048828125	94.09996795654297	844.0852661132812	616.137939453125	-8.184937477111816	1678.57861328125	348.5323791503906	124.4389038085938	1711.27392578125	178.7998504638672	153.9340515136719	1720.582275390625	304.7281188964844	-48.69216918945312	1676.737182617188	214.7362823486328	-68.02867889404297	994.5172729492188	136.4307250976562	21.88304710388184	1003.154113769531	500.3355712890625	97.18259429931641	1032.661499023438	437.36181640625	62.01034164428711	1031.48974609375	180.4277954101562	182.2486114501953	541.86669921875	115.0510635375977	104.9617767333984	670.552001953125	104.5333557128906	117.1302032470703	61.47365570068359	137.0320739746094	147.4204559326172	307.2339477539062	111.4993515014648	327.843994140625	85.66943359375	95.08332824707031	297.1663513183594	85.23108673095703	154.6703491210938	210.2660064697266	54.02489852905273	70.50977325439453	89.26280975341797	67.868896484375	217.8900604248047	53.57826995849609	497.7147216796875	443.5914611816406	84.15186309814453	769.9222412109375	486.8170471191406	-128.873046875	39.57552337646484	442.9940185546875	44.37672805786133	371.7955322265625	421.8950805664062	91.30381011962891	41.81866836547852	393.3870544433594	33.26736831665039	37.49087524414062	351.9614562988281	-11.79915428161621	38.24689865112305	470.6926574707031	-185.7034301757812	40.89228439331055	377.2795104980469	
